<svg xmlns="http://www.w3.org/2000/svg" viewBox="0 0 87.61 83.58"><defs><style>.cls-1{fill:#fff;}.cls-2{fill:#d1cfd0;}.cls-3{fill:#e0e0de;}.cls-4{fill:#f0f1f0;}</style></defs><title>Asset 2</title><g id="Layer_2" data-name="Layer 2"><g id="Layer_1-2" data-name="Layer 1"><polygon class="cls-1" points="47.58 72.12 22.23 52.88 17.21 41.74 47.58 72.12"/><polygon class="cls-2" points="47.56 11.48 17.21 41.74 22.23 30.65 47.56 11.48"/><polygon class="cls-3" points="47.58 72.12 36.11 83.58 22.23 52.88 47.58 72.12"/><polygon class="cls-3" points="36.12 0 47.56 11.48 22.23 30.65 36.12 0"/><polygon class="cls-4" points="36.12 0 22.23 30.65 7.57 41.74 0 36 36.12 0"/><polygon class="cls-4" points="22.23 52.88 36.11 83.58 0 47.47 7.57 41.74 22.23 52.88"/><polygon class="cls-3" points="22.23 30.65 17.21 41.74 22.23 52.88 7.57 41.74 22.23 30.65"/><polygon class="cls-1" points="0 36 7.57 41.74 0 47.47 0 36"/><polygon class="cls-1" points="87.61 49.23 87.61 58.35 68.21 29.83 87.61 49.23"/><polygon class="cls-4" points="68.21 29.83 87.61 58.35 69.35 53.81 68.21 29.83"/><polygon class="cls-3" points="87.61 58.35 62.51 83.58 66.47 66.36 66.47 66.35 87.61 58.35"/><polygon class="cls-2" points="87.61 58.35 66.47 66.35 51.06 72.19 69.35 53.81 87.61 58.35"/><polygon class="cls-3" points="75.05 0.23 86.45 11.65 71.08 17.39 75.05 0.23"/><polygon class="cls-2" points="86.45 11.65 68.21 29.83 49.88 25.31 71.08 17.39 86.45 11.65"/><polygon class="cls-1" points="75.05 0.23 71.08 17.39 49.88 25.31 75.05 0.23"/><polygon class="cls-3" points="68.21 29.83 69.35 53.81 49.88 25.31 68.21 29.83"/><polygon class="cls-4" points="49.88 25.31 69.35 53.81 49.88 34.35 49.88 25.31"/><polygon class="cls-4" points="66.47 66.35 66.47 66.36 62.51 83.58 51.06 72.19 66.47 66.35"/></g></g></svg>